<svg width="52" height="51" viewBox="0 0 52 51" fill="none" xmlns="http://www.w3.org/2000/svg">
<g clip-path="url(#clip0_75_736)">
<path d="M16.9001 2.4517C16.1397 0.614981 14.1351 -0.362629 12.2194 0.160738L3.52954 2.5307C1.81131 3.0047 0.616455 4.56492 0.616455 6.3424C0.616455 30.7728 20.4254 50.5817 44.8558 50.5817C46.6333 50.5817 48.1935 49.3869 48.6675 47.6687L51.0374 38.9788C51.5608 37.0631 50.5832 35.0585 48.7465 34.2981L39.2666 30.3482C37.657 29.6767 35.7907 30.1408 34.6946 31.4936L30.7051 36.3619C23.7532 33.0736 18.1246 27.445 14.8362 20.4931L19.7045 16.5135C21.0574 15.4075 21.5215 13.551 20.85 11.9414L16.9001 2.46158V2.4517Z" fill="white"/>
</g>
<defs>
<clipPath id="clip0_75_736">
<path d="M0.616455 0.0224609H51.1757V50.5817H0.616455V0.0224609Z" fill="white"/>
</clipPath>
</defs>
</svg>
