<svg width="193" height="192" viewBox="0 0 193 192" fill="none" xmlns="http://www.w3.org/2000/svg">
<path d="M168.5 0C181.755 0 192.5 10.7452 192.5 24V168C192.5 181.255 181.755 192 168.5 192H24.5C11.2452 192 0.5 181.255 0.5 168V24C0.5 10.7452 11.2452 0 24.5 0H168.5Z" fill="url(#paint0_linear_75_902)"/>
<path d="M168.5 0C181.755 0 192.5 10.7452 192.5 24V168C192.5 181.255 181.755 192 168.5 192H24.5C11.2452 192 0.5 181.255 0.5 168V24C0.5 10.7452 11.2452 0 24.5 0H168.5Z" stroke="white"/>
<path d="M144.5 144H48.5V48H144.5V144Z" stroke="white"/>
<g filter="url(#filter0_dd_75_902)">
<path d="M48.5 64C48.5 55.1634 55.6634 48 64.5 48H128.5C137.337 48 144.5 55.1634 144.5 64V128C144.5 136.837 137.337 144 128.5 144H64.5C55.6634 144 48.5 136.837 48.5 128V64Z" fill="#2563EB"/>
<path d="M111.5 114H81.5V78H111.5V114Z" stroke="white"/>
<g clip-path="url(#clip0_75_902)">
<path d="M81.5 104.125C81.5 105.162 82.3379 106 83.375 106H86.5801C87.3008 107.658 88.9531 108.812 90.875 108.812C92.7969 108.812 94.4492 107.658 95.1699 106H109.625C110.662 106 111.5 105.162 111.5 104.125C111.5 103.088 110.662 102.25 109.625 102.25H95.1699C94.4492 100.592 92.7969 99.4375 90.875 99.4375C88.9531 99.4375 87.3008 100.592 86.5801 102.25H83.375C82.3379 102.25 81.5 103.088 81.5 104.125ZM89 104.125C89 103.628 89.1975 103.151 89.5492 102.799C89.9008 102.448 90.3777 102.25 90.875 102.25C91.3723 102.25 91.8492 102.448 92.2008 102.799C92.5525 103.151 92.75 103.628 92.75 104.125C92.75 104.622 92.5525 105.099 92.2008 105.451C91.8492 105.802 91.3723 106 90.875 106C90.3777 106 89.9008 105.802 89.5492 105.451C89.1975 105.099 89 104.622 89 104.125ZM100.25 94.75C100.25 94.2527 100.448 93.7758 100.799 93.4242C101.151 93.0725 101.628 92.875 102.125 92.875C102.622 92.875 103.099 93.0725 103.451 93.4242C103.802 93.7758 104 94.2527 104 94.75C104 95.2473 103.802 95.7242 103.451 96.0758C103.099 96.4275 102.622 96.625 102.125 96.625C101.628 96.625 101.151 96.4275 100.799 96.0758C100.448 95.7242 100.25 95.2473 100.25 94.75ZM102.125 90.0625C100.203 90.0625 98.5508 91.2168 97.8301 92.875H83.375C82.3379 92.875 81.5 93.7129 81.5 94.75C81.5 95.7871 82.3379 96.625 83.375 96.625H97.8301C98.5508 98.2832 100.203 99.4375 102.125 99.4375C104.047 99.4375 105.699 98.2832 106.42 96.625H109.625C110.662 96.625 111.5 95.7871 111.5 94.75C111.5 93.7129 110.662 92.875 109.625 92.875H106.42C105.699 91.2168 104.047 90.0625 102.125 90.0625ZM92.75 87.25C92.2527 87.25 91.7758 87.0525 91.4242 86.7008C91.0725 86.3492 90.875 85.8723 90.875 85.375C90.875 84.8777 91.0725 84.4008 91.4242 84.0492C91.7758 83.6975 92.2527 83.5 92.75 83.5C93.2473 83.5 93.7242 83.6975 94.0758 84.0492C94.4275 84.4008 94.625 84.8777 94.625 85.375C94.625 85.8723 94.4275 86.3492 94.0758 86.7008C93.7242 87.0525 93.2473 87.25 92.75 87.25ZM97.0449 83.5C96.3242 81.8418 94.6719 80.6875 92.75 80.6875C90.8281 80.6875 89.1758 81.8418 88.4551 83.5H83.375C82.3379 83.5 81.5 84.3379 81.5 85.375C81.5 86.4121 82.3379 87.25 83.375 87.25H88.4551C89.1758 88.9082 90.8281 90.0625 92.75 90.0625C94.6719 90.0625 96.3242 88.9082 97.0449 87.25H109.625C110.662 87.25 111.5 86.4121 111.5 85.375C111.5 84.3379 110.662 83.5 109.625 83.5H97.0449Z" fill="white"/>
</g>
</g>
<path d="M136.5 40C145.337 40 152.5 47.1634 152.5 56C152.5 64.8366 145.337 72 136.5 72C127.663 72 120.5 64.8366 120.5 56C120.5 47.1634 127.663 40 136.5 40Z" fill="#22C55E"/>
<path d="M136.5 40C145.337 40 152.5 47.1634 152.5 56C152.5 64.8366 145.337 72 136.5 72C127.663 72 120.5 64.8366 120.5 56C120.5 47.1634 127.663 40 136.5 40Z" stroke="white"/>
<path d="M141.75 64H131.25V48H141.75V64Z" stroke="white"/>
<g clip-path="url(#clip1_75_902)">
<path d="M141.529 51.9702C141.822 52.2632 141.822 52.739 141.529 53.0319L135.529 59.0319C135.237 59.3249 134.761 59.3249 134.468 59.0319L131.468 56.0319C131.175 55.739 131.175 55.2632 131.468 54.9702C131.761 54.6772 132.237 54.6772 132.529 54.9702L135 57.4382L140.47 51.9702C140.763 51.6772 141.239 51.6772 141.532 51.9702H141.529Z" fill="white"/>
</g>
<path d="M52.5 128C59.1274 128 64.5 133.373 64.5 140C64.5 146.627 59.1274 152 52.5 152C45.8726 152 40.5 146.627 40.5 140C40.5 133.373 45.8726 128 52.5 128Z" fill="#FB923C"/>
<path d="M52.5 128C59.1274 128 64.5 133.373 64.5 140C64.5 146.627 59.1274 152 52.5 152C45.8726 152 40.5 146.627 40.5 140C40.5 133.373 45.8726 128 52.5 128Z" stroke="white"/>
<path d="M59.25 148H45.75V132H59.25V148Z" stroke="white"/>
<g clip-path="url(#clip2_75_902)">
<path d="M53.1774 133.922C53.0532 133.664 52.7907 133.5 52.5024 133.5C52.2141 133.5 51.954 133.664 51.8274 133.922L50.3204 137.023L46.9547 137.52C46.6735 137.562 46.4391 137.759 46.3524 138.028C46.2657 138.298 46.336 138.595 46.5376 138.795L48.9797 141.211L48.4032 144.626C48.3563 144.907 48.4735 145.193 48.7055 145.359C48.9376 145.526 49.2446 145.547 49.4977 145.413L52.5047 143.808L55.5118 145.413C55.7649 145.547 56.0719 145.528 56.304 145.359C56.536 145.191 56.6532 144.907 56.6063 144.626L56.0274 141.211L58.4696 138.795C58.6711 138.595 58.7438 138.298 58.6547 138.028C58.5657 137.759 58.3336 137.562 58.0524 137.52L54.6844 137.023L53.1774 133.922Z" fill="white"/>
</g>
<defs>
<filter id="filter0_dd_75_902" x="33.5" y="43" width="126" height="126" filterUnits="userSpaceOnUse" color-interpolation-filters="sRGB">
<feFlood flood-opacity="0" result="BackgroundImageFix"/>
<feColorMatrix in="SourceAlpha" type="matrix" values="0 0 0 0 0 0 0 0 0 0 0 0 0 0 0 0 0 0 127 0" result="hardAlpha"/>
<feOffset dy="10"/>
<feGaussianBlur stdDeviation="7.5"/>
<feColorMatrix type="matrix" values="0 0 0 0 0 0 0 0 0 0 0 0 0 0 0 0 0 0 0.1 0"/>
<feBlend mode="normal" in2="BackgroundImageFix" result="effect1_dropShadow_75_902"/>
<feColorMatrix in="SourceAlpha" type="matrix" values="0 0 0 0 0 0 0 0 0 0 0 0 0 0 0 0 0 0 127 0" result="hardAlpha"/>
<feOffset dy="4"/>
<feGaussianBlur stdDeviation="3"/>
<feColorMatrix type="matrix" values="0 0 0 0 0 0 0 0 0 0 0 0 0 0 0 0 0 0 0.1 0"/>
<feBlend mode="normal" in2="effect1_dropShadow_75_902" result="effect2_dropShadow_75_902"/>
<feBlend mode="normal" in="SourceGraphic" in2="effect2_dropShadow_75_902" result="shape"/>
</filter>
<linearGradient id="paint0_linear_75_902" x1="0.5" y1="96" x2="192.5" y2="96" gradientUnits="userSpaceOnUse">
<stop stop-color="#EFF6FF"/>
<stop offset="1" stop-color="#E0E7FF"/>
</linearGradient>
<clipPath id="clip0_75_902">
<path d="M81.5 79.75H111.5V109.75H81.5V79.75Z" fill="white"/>
</clipPath>
<clipPath id="clip1_75_902">
<path d="M131.25 49.5H141.75V61.5H131.25V49.5Z" fill="white"/>
</clipPath>
<clipPath id="clip2_75_902">
<path d="M45.75 133.5H59.25V145.5H45.75V133.5Z" fill="white"/>
</clipPath>
</defs>
</svg>
