<svg width="18" height="8" viewBox="0 0 18 8" fill="none" xmlns="http://www.w3.org/2000/svg">
<path d="M8.99463 0.548828C9.3926 0.548828 9.81444 0.570053 10.2602 0.612503C10.7059 0.654953 11.1596 0.721281 11.6212 0.811487C12.0829 0.901693 12.5365 1.01843 12.9823 1.1617C13.428 1.30497 13.8631 1.47477 14.2876 1.6711C14.7121 1.86743 15.0968 2.0956 15.4417 2.3556C15.7866 2.61561 16.1023 2.9048 16.3889 3.22318C16.617 3.49379 16.8001 3.78829 16.9381 4.10666C17.076 4.42504 17.145 4.76729 17.145 5.13342V6.15222C17.145 6.36447 17.1052 6.56346 17.0256 6.74917C16.946 6.93489 16.8373 7.09673 16.6993 7.2347C16.5613 7.37266 16.3995 7.48144 16.2138 7.56103C16.0281 7.64062 15.8291 7.68042 15.6168 7.68042H13.5792C13.367 7.68042 13.168 7.64062 12.9823 7.56103C12.7966 7.48144 12.6347 7.37266 12.4967 7.2347C12.3588 7.09673 12.25 6.93489 12.1704 6.74917C12.0908 6.56346 12.051 6.36447 12.051 6.15222V5.13342C12.051 4.99546 12.0006 4.87607 11.8998 4.77525C11.799 4.67443 11.6796 4.62402 11.5416 4.62402H6.44763C6.30967 4.62402 6.19028 4.67443 6.08946 4.77525C5.98864 4.87607 5.93823 4.99546 5.93823 5.13342V6.15222C5.93823 6.36447 5.89844 6.56346 5.81884 6.74917C5.73925 6.93489 5.63047 7.09673 5.49251 7.2347C5.35455 7.37266 5.19271 7.48144 5.00699 7.56103C4.82127 7.64062 4.62228 7.68042 4.41003 7.68042H2.37244C2.16019 7.68042 1.9612 7.64062 1.77548 7.56103C1.58977 7.48144 1.42793 7.37266 1.28996 7.2347C1.152 7.09673 1.04322 6.93489 0.963629 6.74917C0.884035 6.56346 0.844238 6.36447 0.844238 6.15222V5.13342C0.844238 4.7726 0.913219 4.433 1.05118 4.11462C1.18914 3.79625 1.37221 3.4991 1.60038 3.22318C1.871 2.9048 2.18406 2.61826 2.53958 2.36356C2.8951 2.10886 3.28246 1.8807 3.70165 1.67906C4.12084 1.47742 4.5533 1.30762 4.99903 1.16966C5.44475 1.0317 5.90109 0.914959 6.36804 0.819447C6.83499 0.723934 7.28602 0.654953 7.72113 0.612503C8.15624 0.570053 8.58074 0.548828 8.99463 0.548828ZM16.1262 5.13342C16.1262 4.8575 16.0599 4.59749 15.9272 4.3534C15.7946 4.10932 15.6274 3.8838 15.4258 3.67686C15.2242 3.46992 14.9986 3.28685 14.7493 3.12766C14.4999 2.96848 14.269 2.82786 14.0568 2.70582C13.6853 2.50949 13.2927 2.33969 12.8788 2.19642C12.4649 2.05315 12.0378 1.93641 11.5973 1.8462C11.1569 1.756 10.7192 1.68702 10.284 1.63926C9.84893 1.59151 9.41913 1.56763 8.99463 1.56763C8.57544 1.56763 8.14563 1.58885 7.70521 1.6313C7.26479 1.67375 6.82703 1.74273 6.39192 1.83825C5.9568 1.93376 5.5323 2.05315 5.11842 2.19642C4.70453 2.33969 4.30922 2.50949 3.93247 2.70582C3.71492 2.82255 3.48409 2.96052 3.24001 3.1197C2.99592 3.27889 2.77306 3.46196 2.57142 3.6689C2.36978 3.87584 2.19998 4.10136 2.06202 4.34545C1.92406 4.58953 1.85773 4.85219 1.86304 5.13342V6.15222C1.86304 6.29018 1.91345 6.40957 2.01427 6.51039C2.11508 6.61121 2.23447 6.66162 2.37244 6.66162H4.41003C4.548 6.66162 4.66739 6.61121 4.76821 6.51039C4.86902 6.40957 4.91943 6.29018 4.91943 6.15222V5.13342C4.91943 4.92117 4.95923 4.72219 5.03882 4.53647C5.11842 4.35075 5.2272 4.18891 5.36516 4.05095C5.50312 3.91299 5.66496 3.80421 5.85068 3.72462C6.0364 3.64502 6.23538 3.60522 6.44763 3.60522H11.5416C11.7539 3.60522 11.9529 3.64502 12.1386 3.72462C12.3243 3.80421 12.4861 3.91299 12.6241 4.05095C12.7621 4.18891 12.8708 4.35075 12.9504 4.53647C13.03 4.72219 13.0698 4.92117 13.0698 5.13342V6.15222C13.0698 6.29018 13.1202 6.40957 13.2211 6.51039C13.3219 6.61121 13.4413 6.66162 13.5792 6.66162H15.6168C15.7548 6.66162 15.8742 6.61121 15.975 6.51039C16.0758 6.40957 16.1262 6.29018 16.1262 6.15222V5.13342Z" fill="white"/>
</svg>
