<svg width="21" height="21" viewBox="0 0 21 21" fill="none" xmlns="http://www.w3.org/2000/svg">
<path d="M18.4525 8.86824H17.7813V8.83366H10.2813V12.167H14.9909C14.3038 14.1074 12.4575 15.5003 10.2813 15.5003C7.52002 15.5003 5.28127 13.2616 5.28127 10.5003C5.28127 7.73908 7.52002 5.50033 10.2813 5.50033C11.5559 5.50033 12.7154 5.98116 13.5984 6.76658L15.9554 4.40949C14.4671 3.02241 12.4763 2.16699 10.2813 2.16699C5.67919 2.16699 1.94794 5.89824 1.94794 10.5003C1.94794 15.1024 5.67919 18.8337 10.2813 18.8337C14.8834 18.8337 18.6146 15.1024 18.6146 10.5003C18.6146 9.94158 18.5571 9.39616 18.4525 8.86824Z" fill="#FFC107"/>
<path d="M2.90875 6.62158L5.64667 8.62949C6.3875 6.79533 8.18167 5.50033 10.2813 5.50033C11.5558 5.50033 12.7154 5.98116 13.5983 6.76658L15.9554 4.40949C14.4671 3.02241 12.4763 2.16699 10.2813 2.16699C7.08042 2.16699 4.30459 3.97408 2.90875 6.62158Z" fill="#FF3D00"/>
<path d="M10.2812 18.8336C12.4337 18.8336 14.3896 18.0099 15.8683 16.6703L13.2892 14.4878C12.4245 15.1457 11.3677 15.5015 10.2812 15.5003C8.11374 15.5003 6.27332 14.1182 5.57999 12.1895L2.86249 14.2832C4.24165 16.982 7.04249 18.8336 10.2812 18.8336Z" fill="#4CAF50"/>
<path d="M18.4525 8.86759H17.7812V8.83301H10.2812V12.1663H14.9908C14.6622 13.0898 14.0701 13.8968 13.2879 14.4876L13.2892 14.4868L15.8683 16.6693C15.6858 16.8351 18.6146 14.6663 18.6146 10.4997C18.6146 9.94092 18.5571 9.39551 18.4525 8.86759Z" fill="#1976D2"/>
</svg>
