<svg width="14" height="17" viewBox="0 0 14 17" fill="none" xmlns="http://www.w3.org/2000/svg">
<path fill-rule="evenodd" clip-rule="evenodd" d="M7.48334 16.0236L7.4758 16.025L7.42712 16.05L7.41341 16.0528L7.40381 16.05L7.35514 16.025C7.34783 16.0226 7.34234 16.0238 7.33869 16.0286L7.33594 16.0357L7.32429 16.3409L7.32772 16.3551L7.33457 16.3644L7.40587 16.4172L7.41615 16.42L7.42438 16.4172L7.49568 16.3644L7.5039 16.353L7.50665 16.3409L7.49499 16.0364C7.49316 16.0288 7.48928 16.0245 7.48334 16.0236ZM7.66501 15.943L7.6561 15.9444L7.52927 16.0108L7.52241 16.0179L7.52036 16.0257L7.5327 16.3323L7.53613 16.3409L7.54161 16.3459L7.67941 16.4122C7.68809 16.4145 7.69472 16.4126 7.69929 16.4065L7.70203 16.3965L7.67872 15.9587C7.67644 15.9502 7.67186 15.9449 7.66501 15.943ZM7.17484 15.9444C7.17182 15.9425 7.16821 15.9419 7.16476 15.9427C7.16131 15.9435 7.15829 15.9457 7.15633 15.9487L7.15221 15.9587L7.12891 16.3965C7.12936 16.405 7.13325 16.4107 7.14056 16.4136L7.15084 16.4122L7.28864 16.3459L7.2955 16.3401L7.29824 16.3323L7.30989 16.0257L7.30784 16.0172L7.30098 16.01L7.17484 15.9444Z" fill="#5498F7"/>
<path fill-rule="evenodd" clip-rule="evenodd" d="M3.55009 1.18459C4.33367 1.7785 4.94382 2.58915 5.46484 3.36487L5.76785 3.82403L6.05373 4.26251C6.19672 4.47977 6.25786 4.74416 6.2255 5.00528C6.19313 5.26641 6.06953 5.50603 5.87823 5.67848L4.54071 6.71158C4.47609 6.76011 4.43061 6.83138 4.4127 6.91216C4.3948 6.99293 4.40569 7.07772 4.44336 7.15077C4.74638 7.72329 5.28522 8.57601 5.90222 9.21769C6.51922 9.85937 7.37822 10.4568 7.96711 10.8076C8.04095 10.8507 8.12786 10.8628 8.20997 10.8413C8.29209 10.8198 8.36317 10.7664 8.40861 10.6921L9.27926 9.31394C9.43933 9.09281 9.67546 8.94467 9.9382 8.90055C10.2009 8.85642 10.4699 8.91974 10.6888 9.07724L11.1433 9.40449C11.9927 10.0176 12.9052 10.7142 13.6031 11.6432C13.7137 11.7914 13.7841 11.9677 13.8069 12.1538C13.8297 12.34 13.8041 12.529 13.7326 12.7013C13.1588 14.0937 11.7068 15.2794 10.1965 15.2217L9.99087 15.2095L9.83113 15.1953L9.65426 15.1739L9.46162 15.1468L9.25252 15.1112L9.14284 15.0898L8.91249 15.0384L8.79183 15.0099L8.54092 14.9429L8.27698 14.8645L8.00139 14.7718C6.73586 14.3255 5.1296 13.4485 3.48153 11.7345C1.83346 10.0205 0.990913 8.35071 0.561756 7.03456L0.472634 6.74794L0.397223 6.47345L0.332781 6.2125L0.279308 5.96581C0.263881 5.88854 0.249483 5.81106 0.236118 5.73338L0.20184 5.51592L0.174418 5.31557L0.154537 5.13162L0.140826 4.9655L0.129857 4.75161C0.074327 3.18591 1.22674 1.66513 2.55946 1.07123C2.71986 0.999191 2.89552 0.971766 3.06919 0.99164C3.24286 1.01151 3.40858 1.07801 3.55009 1.18459ZM12.0756 1.78919C12.199 1.66132 12.3646 1.58708 12.5386 1.58155C12.7127 1.57602 12.8823 1.63962 13.013 1.75942C13.1436 1.87923 13.2255 2.04626 13.242 2.22659C13.2586 2.40691 13.2085 2.58702 13.1019 2.73032L13.045 2.79734L10.7875 5.14517H11.8748C12.0495 5.14537 12.2176 5.21496 12.3446 5.33971C12.4717 5.46445 12.5481 5.63495 12.5584 5.81636C12.5686 5.99777 12.5119 6.1764 12.3997 6.31576C12.2876 6.45511 12.1285 6.54467 11.955 6.56613L11.8748 6.57112H9.13255C8.96464 6.5711 8.80257 6.50699 8.67709 6.39094C8.55161 6.2749 8.47144 6.115 8.4518 5.94157L8.447 5.85815V3.00624C8.44719 2.82452 8.5141 2.64973 8.63405 2.51759C8.754 2.38545 8.91794 2.30593 9.09238 2.29528C9.26681 2.28463 9.43857 2.34366 9.57256 2.46029C9.70656 2.57693 9.79267 2.74237 9.81331 2.92282L9.81811 3.00624V4.13702L12.0756 1.78919Z" fill="#5498F7"/>
</svg>
