<svg width="18" height="16" viewBox="0 0 18 16" fill="none" xmlns="http://www.w3.org/2000/svg">
<path d="M6.09666 1.33465C5.89213 0.789723 5.35291 0.499684 4.8376 0.654957L2.5001 1.35808C2.03791 1.49871 1.71651 1.9616 1.71651 2.48894C1.71651 5.63543 2.72057 8.5241 4.39401 10.7829L0.260882 14.3571C-0.0153683 14.5973 -0.065837 15.0397 0.151975 15.3444C0.369788 15.6491 0.770882 15.7048 1.04713 15.4645L16.7721 1.87078C17.0484 1.63054 17.0989 1.18816 16.881 0.883473C16.6632 0.578786 16.2621 0.523122 15.9859 0.763356L6.73682 8.75847C6.26401 8.12859 5.86291 7.43425 5.54151 6.68718L6.85104 5.50652C7.21494 5.1784 7.33979 4.62761 7.15916 4.15007L6.09666 1.33757V1.33465ZM8.66791 10.6803L6.24276 12.7897C8.26948 14.5593 10.8301 15.6139 13.6165 15.6139C14.0946 15.6139 14.5143 15.2595 14.6418 14.7497L15.2793 12.1716C15.4201 11.6032 15.1571 11.0085 14.6631 10.7829L12.1131 9.61101C11.6801 9.41179 11.1781 9.54949 10.8832 9.95086L9.8101 11.3952C9.41166 11.1872 9.03182 10.9499 8.66791 10.6833V10.6803Z" fill="#EF4444"/>
</svg>
