<svg width="15" height="16" viewBox="0 0 15 16" fill="none" xmlns="http://www.w3.org/2000/svg">
<path d="M5.02468 13.0038L4.6763 13.8195C4.15926 13.5568 3.6837 13.2333 3.25237 12.8545L3.88001 12.2269C4.22562 12.5283 4.60994 12.7909 5.02468 13.0038ZM1.82015 8.14588H0.932617C0.971326 8.73204 1.08192 9.29884 1.25611 9.83523L2.08005 9.50621C1.94457 9.07212 1.85333 8.61591 1.82015 8.14588ZM1.82015 7.26111C1.85886 6.7413 1.96393 6.23809 2.12706 5.76529L1.31141 5.41691C1.10404 5.99754 0.974091 6.61688 0.932617 7.26111H1.82015ZM2.47543 4.95241C2.6911 4.54044 2.951 4.15612 3.25237 3.80498L2.62474 3.17734C2.24595 3.60867 1.91969 4.08423 1.65979 4.60127L2.47543 4.95241ZM11.6743 12.2269C11.29 12.5587 10.8614 12.8434 10.3997 13.0674L10.7287 13.8913C11.301 13.6176 11.8291 13.2665 12.3019 12.8517L11.6743 12.2269ZM3.87724 3.18011C4.26156 2.84832 4.69012 2.56353 5.15186 2.33958L4.82284 1.51563C4.2505 1.78936 3.72241 2.1405 3.25237 2.55524L3.87724 3.18011ZM13.0761 10.4546C12.8604 10.8665 12.6005 11.2509 12.2991 11.602L12.9268 12.2296C13.3056 11.7983 13.6318 11.32 13.8917 10.8057L13.0761 10.4546ZM13.7314 8.14588C13.6927 8.66568 13.5876 9.16889 13.4245 9.64169L14.2401 9.99007C14.4475 9.40667 14.5774 8.78733 14.6161 8.14311H13.7314V8.14588ZM9.57847 13.3992C9.14439 13.5374 8.68818 13.6259 8.21814 13.6591V14.5466C8.8043 14.5079 9.37111 14.3973 9.9075 14.2231L9.57847 13.3992ZM7.33337 13.6591C6.81357 13.6204 6.31036 13.5153 5.83756 13.3522L5.48918 14.1678C6.07258 14.3752 6.69191 14.5052 7.33614 14.5439V13.6591H7.33337ZM13.4715 5.90077C13.6097 6.33486 13.6982 6.79107 13.7314 7.26111H14.6189C14.5802 6.67495 14.4696 6.10814 14.2954 5.57175L13.4715 5.90077ZM3.25237 11.602C2.92058 11.2177 2.6358 10.7891 2.41184 10.3274L1.5879 10.6564C1.86163 11.2287 2.21277 11.7568 2.6275 12.2296L3.25237 11.602ZM8.21814 1.74789C8.73794 1.78659 9.23839 1.89166 9.71395 2.05479L10.0623 1.23914C9.4817 1.03178 8.86236 0.901825 8.21814 0.860352V1.74789ZM5.97304 2.00779C6.40713 1.86954 6.86334 1.78106 7.33337 1.74789V0.860352C6.74721 0.89906 6.18041 1.00966 5.64401 1.18385L5.97304 2.00779ZM12.9268 3.17734L12.2991 3.80498C12.6309 4.1893 12.9157 4.61786 13.1424 5.0796L13.9664 4.75057C13.6927 4.17824 13.3415 3.65014 12.9268 3.17734ZM11.6743 3.18011L12.3019 2.55247C11.8706 2.17368 11.395 1.84742 10.878 1.58752L10.5296 2.40317C10.9388 2.61883 11.3259 2.87873 11.6743 3.18011Z" fill="#F59E0B"/>
<path d="M7.77637 11.4634C8.20393 11.4634 8.55054 11.1168 8.55054 10.6892C8.55054 10.2616 8.20393 9.91504 7.77637 9.91504C7.34881 9.91504 7.0022 10.2616 7.0022 10.6892C7.0022 11.1168 7.34881 11.4634 7.77637 11.4634Z" fill="#F59E0B"/>
<path d="M7.98865 9.25149H7.54627C7.36378 9.25149 7.21448 9.10218 7.21448 8.9197C7.21448 6.95662 9.35451 7.15293 9.35451 5.93913C9.35451 5.38615 8.86236 4.82764 7.76746 4.82764C6.96287 4.82764 6.54261 5.09307 6.13064 5.62117C6.0228 5.75941 5.82373 5.78706 5.68272 5.68753L5.32052 5.43316C5.16568 5.32532 5.12974 5.1069 5.24863 4.95759C5.83479 4.20554 6.53155 3.72168 7.77022 3.72168C9.21627 3.72168 10.4632 4.54562 10.4632 5.93913C10.4632 7.80821 8.3232 7.69485 8.3232 8.9197C8.32044 9.10218 8.17114 9.25149 7.98865 9.25149Z" fill="#F59E0B"/>
</svg>
