<svg width="15" height="15" viewBox="0 0 15 15" fill="none" xmlns="http://www.w3.org/2000/svg">
<path d="M3.3005 0.673309C3.46627 0.602476 3.6478 0.575508 3.82729 0.595051C4.00677 0.614593 4.17804 0.679976 4.32428 0.784783C5.13409 1.36879 5.76465 2.16593 6.30311 2.92872L6.61626 3.38022L6.9117 3.81139C7.1951 4.22083 7.15047 4.77118 6.80826 5.12944L6.73033 5.20376L5.34805 6.21964C5.28145 6.26733 5.23456 6.33729 5.21606 6.41656C5.19756 6.49583 5.20871 6.57905 5.24745 6.65081C5.5606 7.21448 6.11748 8.05299 6.75513 8.68397C7.39277 9.31495 8.28052 9.90246 8.88912 10.2474C8.95524 10.2844 9.03198 10.2984 9.1071 10.2872C9.18222 10.2761 9.25139 10.2403 9.30359 10.1857L9.34539 10.1338L10.2452 8.77862C10.4106 8.56117 10.6546 8.4155 10.9262 8.37211C11.1977 8.32872 11.4757 8.39099 11.7018 8.54586L12.202 8.88939C13.1188 9.52247 14.0208 10.1906 14.7137 11.0684C14.8282 11.2141 14.901 11.3877 14.9246 11.5708C14.9481 11.754 14.9215 11.94 14.8476 12.1095C14.2581 13.4703 12.7462 14.6439 11.1931 14.5872L10.9806 14.5759L10.8155 14.5619L10.6327 14.5409L10.4336 14.5142L10.2175 14.4785L9.98658 14.4336L9.74144 14.3789L9.48213 14.3137L9.20936 14.2359L8.92454 14.1448C7.61666 13.7066 5.95665 12.8442 4.25343 11.1595C2.5502 9.4748 1.67946 7.83144 1.23594 6.53723L1.14384 6.25539L1.0659 5.98547L0.999304 5.72887L0.944041 5.4863L0.899406 5.25774L0.863981 5.04391L0.835642 4.8469L0.815095 4.66602L0.800925 4.50267L0.789589 4.29234C0.732201 2.75274 1.92318 1.25662 3.3005 0.673309ZM13.636 1.17389C13.8239 1.17389 14.0042 1.24775 14.137 1.37923C14.2699 1.51071 14.3445 1.68904 14.3445 1.87498V4.67934C14.3445 4.86528 14.2699 5.04361 14.137 5.17509C14.0042 5.30657 13.8239 5.38043 13.636 5.38043C13.4481 5.38043 13.2679 5.30657 13.1351 5.17509C13.0022 5.04361 12.9275 4.86528 12.9275 4.67934V3.56741L10.5945 5.8761C10.4608 6.00381 10.2819 6.07448 10.0961 6.07288C9.91034 6.07128 9.73265 5.99755 9.60128 5.86756C9.46992 5.73757 9.39541 5.56173 9.3938 5.37791C9.39218 5.19408 9.4636 5.01699 9.59265 4.88476L11.9257 2.57607H10.8021C10.6142 2.57607 10.4339 2.5022 10.3011 2.37072C10.1682 2.23924 10.0936 2.06092 10.0936 1.87498C10.0936 1.68904 10.1682 1.51071 10.3011 1.37923C10.4339 1.24775 10.6142 1.17389 10.8021 1.17389H13.636Z" fill="#10B981"/>
</svg>
