<svg width="9" height="10" viewBox="0 0 9 10" fill="none" xmlns="http://www.w3.org/2000/svg">
<path d="M4.54934 0.515625C4.63152 0.515625 4.71371 0.533492 4.78875 0.567438L8.15302 1.99498C8.54609 2.16114 8.8391 2.54884 8.83731 3.01694C8.82838 4.78931 8.09942 8.03209 5.02101 9.50608C4.72264 9.64902 4.37603 9.64902 4.07766 9.50608C0.99925 8.03209 0.270294 4.78931 0.261361 3.01694C0.259574 2.54884 0.552586 2.16114 0.94565 1.99498L4.31171 0.567438C4.38496 0.533492 4.46715 0.515625 4.54934 0.515625ZM4.54934 1.70911V8.46267C7.01492 7.26919 7.67777 4.62672 7.69385 3.04196L4.54934 1.70911Z" fill="#E5E7EB"/>
</svg>
