<svg width="193" height="193" viewBox="0 0 193 193" fill="none" xmlns="http://www.w3.org/2000/svg">
<path d="M168.5 0.125C181.755 0.125 192.5 10.8702 192.5 24.125V168.125C192.5 181.38 181.755 192.125 168.5 192.125H24.5C11.2452 192.125 0.5 181.38 0.5 168.125V24.125C0.5 10.8702 11.2452 0.125 24.5 0.125H168.5Z" fill="url(#paint0_linear_75_827)"/>
<path d="M168.5 0.125C181.755 0.125 192.5 10.8702 192.5 24.125V168.125C192.5 181.38 181.755 192.125 168.5 192.125H24.5C11.2452 192.125 0.5 181.38 0.5 168.125V24.125C0.5 10.8702 11.2452 0.125 24.5 0.125H168.5Z" stroke="#E5E7EB"/>
<path d="M144.5 160.125H48.5V32.125H144.5V160.125Z" stroke="#E5E7EB"/>
<g filter="url(#filter0_dd_75_827)">
<path d="M48.5 48.125C48.5 39.2884 55.6634 32.125 64.5 32.125H128.5C137.337 32.125 144.5 39.2884 144.5 48.125V144.125C144.5 152.962 137.337 160.125 128.5 160.125H64.5C55.6634 160.125 48.5 152.962 48.5 144.125V48.125Z" fill="white"/>
<path d="M111.5 100.125H81.5V64.125H111.5V100.125Z" stroke="#E5E7EB"/>
<g clip-path="url(#clip0_75_827)">
<path d="M85.8945 70.2695L83.9023 68.2773C83.0176 67.3926 81.5 68.0195 81.5 69.2676V75.7188C81.5 76.498 82.127 77.125 82.9062 77.125H89.3574C90.6113 77.125 91.2383 75.6074 90.3535 74.7227L88.5488 72.918C90.582 70.8848 93.3945 69.625 96.5 69.625C102.711 69.625 107.75 74.6641 107.75 80.875C107.75 87.0859 102.711 92.125 96.5 92.125C94.1094 92.125 91.8945 91.3809 90.0723 90.1094C89.2227 89.5176 88.0566 89.7227 87.459 90.5723C86.8613 91.4219 87.0723 92.5879 87.9219 93.1855C90.3594 94.8789 93.3184 95.875 96.5 95.875C104.785 95.875 111.5 89.1602 111.5 80.875C111.5 72.5898 104.785 65.875 96.5 65.875C92.3574 65.875 88.6074 67.5566 85.8945 70.2695ZM96.5 73.375C95.7207 73.375 95.0938 74.002 95.0938 74.7812V80.875C95.0938 81.25 95.2402 81.6074 95.5039 81.8711L99.7227 86.0898C100.273 86.6406 101.164 86.6406 101.709 86.0898C102.254 85.5391 102.26 84.6484 101.709 84.1035L97.9004 80.2949V74.7812C97.9004 74.002 97.2734 73.375 96.4941 73.375H96.5Z" fill="#667EEA"/>
</g>
<path d="M120.5 128.125H72.5V108.125H120.5V128.125Z" stroke="#E5E7EB"/>
<path d="M118.5 108.125C119.605 108.125 120.5 109.02 120.5 110.125C120.5 111.23 119.605 112.125 118.5 112.125H74.5C73.3954 112.125 72.5 111.23 72.5 110.125C72.5 109.02 73.3954 108.125 74.5 108.125H118.5Z" fill="#D1D5DB"/>
<path d="M118.5 108.125C119.605 108.125 120.5 109.02 120.5 110.125C120.5 111.23 119.605 112.125 118.5 112.125H74.5C73.3954 112.125 72.5 111.23 72.5 110.125C72.5 109.02 73.3954 108.125 74.5 108.125H118.5Z" stroke="#E5E7EB"/>
<path d="M102.5 116.125C103.605 116.125 104.5 117.02 104.5 118.125C104.5 119.23 103.605 120.125 102.5 120.125H74.5C73.3954 120.125 72.5 119.23 72.5 118.125C72.5 117.02 73.3954 116.125 74.5 116.125H102.5Z" fill="#D1D5DB"/>
<path d="M102.5 116.125C103.605 116.125 104.5 117.02 104.5 118.125C104.5 119.23 103.605 120.125 102.5 120.125H74.5C73.3954 120.125 72.5 119.23 72.5 118.125C72.5 117.02 73.3954 116.125 74.5 116.125H102.5Z" stroke="#E5E7EB"/>
<path d="M110.5 124.125C111.605 124.125 112.5 125.02 112.5 126.125C112.5 127.23 111.605 128.125 110.5 128.125H74.5C73.3954 128.125 72.5 127.23 72.5 126.125C72.5 125.02 73.3954 124.125 74.5 124.125H110.5Z" fill="#D1D5DB"/>
<path d="M110.5 124.125C111.605 124.125 112.5 125.02 112.5 126.125C112.5 127.23 111.605 128.125 110.5 128.125H74.5C73.3954 128.125 72.5 127.23 72.5 126.125C72.5 125.02 73.3954 124.125 74.5 124.125H110.5Z" stroke="#E5E7EB"/>
</g>
<path d="M148.5 24.125C155.127 24.125 160.5 29.4976 160.5 36.125C160.5 42.7524 155.127 48.125 148.5 48.125H125.594C118.966 48.125 113.594 42.7524 113.594 36.125C113.594 29.4976 118.966 24.125 125.594 24.125H148.5Z" fill="#22C55E"/>
<path d="M148.5 24.125C155.127 24.125 160.5 29.4976 160.5 36.125C160.5 42.7524 155.127 48.125 148.5 48.125H125.594C118.966 48.125 113.594 42.7524 113.594 36.125C113.594 29.4976 118.966 24.125 125.594 24.125H148.5Z" stroke="#E5E7EB"/>
<path d="M136.012 31.761L133.588 40.125H132.364L130.42 33.393L128.404 40.125L127.192 40.137L124.852 31.761H126.016L127.84 38.853L129.856 31.761H131.08L133 38.829L134.836 31.761H136.012ZM140.075 40.233C139.459 40.233 138.899 40.093 138.395 39.813C137.899 39.533 137.507 39.137 137.219 38.625C136.939 38.105 136.799 37.505 136.799 36.825C136.799 36.153 136.943 35.561 137.231 35.049C137.527 34.529 137.927 34.133 138.431 33.861C138.935 33.581 139.499 33.441 140.123 33.441C140.747 33.441 141.311 33.581 141.815 33.861C142.319 34.133 142.715 34.525 143.003 35.037C143.299 35.549 143.447 36.145 143.447 36.825C143.447 37.505 143.295 38.105 142.991 38.625C142.695 39.137 142.291 39.533 141.779 39.813C141.267 40.093 140.699 40.233 140.075 40.233ZM140.075 39.273C140.467 39.273 140.835 39.181 141.179 38.997C141.523 38.813 141.799 38.537 142.007 38.169C142.223 37.801 142.331 37.353 142.331 36.825C142.331 36.297 142.227 35.849 142.019 35.481C141.811 35.113 141.539 34.841 141.203 34.665C140.867 34.481 140.503 34.389 140.111 34.389C139.711 34.389 139.343 34.481 139.007 34.665C138.679 34.841 138.415 35.113 138.215 35.481C138.015 35.849 137.915 36.297 137.915 36.825C137.915 37.361 138.011 37.813 138.203 38.181C138.403 38.549 138.667 38.825 138.995 39.009C139.323 39.185 139.683 39.273 140.075 39.273ZM145.975 34.617C146.167 34.241 146.439 33.949 146.791 33.741C147.151 33.533 147.587 33.429 148.099 33.429V34.557H147.811C146.587 34.557 145.975 35.221 145.975 36.549V40.125H144.883V33.549H145.975V34.617ZM153.032 40.125L150.452 37.221V40.125H149.36V31.245H150.452V36.465L152.984 33.549H154.508L151.412 36.825L154.52 40.125H153.032Z" fill="white"/>
<path d="M76.6094 144.125C83.2368 144.125 88.6094 149.498 88.6094 156.125C88.6094 162.752 83.2368 168.125 76.6094 168.125H44.5C37.8726 168.125 32.5 162.752 32.5 156.125C32.5 149.498 37.8726 144.125 44.5 144.125H76.6094Z" fill="#3B82F6"/>
<path d="M76.6094 144.125C83.2368 144.125 88.6094 149.498 88.6094 156.125C88.6094 162.752 83.2368 168.125 76.6094 168.125H44.5C37.8726 168.125 32.5 162.752 32.5 156.125C32.5 149.498 37.8726 144.125 44.5 144.125H76.6094Z" stroke="#E5E7EB"/>
<path d="M49.5583 151.761V152.649H45.9223V155.469H48.8743V156.357H45.9223V160.125H44.8303V151.761H49.5583ZM50.4691 156.813C50.4691 156.141 50.6051 155.553 50.8771 155.049C51.1491 154.537 51.5211 154.141 51.9931 153.861C52.4731 153.581 53.0051 153.441 53.5891 153.441C54.1651 153.441 54.6651 153.565 55.0891 153.813C55.5131 154.061 55.8291 154.373 56.0371 154.749V153.549H57.1411V160.125H56.0371V158.901C55.8211 159.285 55.4971 159.605 55.0651 159.861C54.6411 160.109 54.1451 160.233 53.5771 160.233C52.9931 160.233 52.4651 160.089 51.9931 159.801C51.5211 159.513 51.1491 159.109 50.8771 158.589C50.6051 158.069 50.4691 157.477 50.4691 156.813ZM56.0371 156.825C56.0371 156.329 55.9371 155.897 55.7371 155.529C55.5371 155.161 55.2651 154.881 54.9211 154.689C54.5851 154.489 54.2131 154.389 53.8051 154.389C53.3971 154.389 53.0251 154.485 52.6891 154.677C52.3531 154.869 52.0851 155.149 51.8851 155.517C51.6851 155.885 51.5851 156.317 51.5851 156.813C51.5851 157.317 51.6851 157.757 51.8851 158.133C52.0851 158.501 52.3531 158.785 52.6891 158.985C53.0251 159.177 53.3971 159.273 53.8051 159.273C54.2131 159.273 54.5851 159.177 54.9211 158.985C55.2651 158.785 55.5371 158.501 55.7371 158.133C55.9371 157.757 56.0371 157.321 56.0371 156.825ZM66.8945 153.429C67.4065 153.429 67.8625 153.537 68.2625 153.753C68.6625 153.961 68.9785 154.277 69.2105 154.701C69.4425 155.125 69.5585 155.641 69.5585 156.249V160.125H68.4785V156.405C68.4785 155.749 68.3145 155.249 67.9865 154.905C67.6665 154.553 67.2305 154.377 66.6785 154.377C66.1105 154.377 65.6585 154.561 65.3225 154.929C64.9865 155.289 64.8185 155.813 64.8185 156.501V160.125H63.7385V156.405C63.7385 155.749 63.5745 155.249 63.2465 154.905C62.9265 154.553 62.4905 154.377 61.9385 154.377C61.3705 154.377 60.9185 154.561 60.5825 154.929C60.2465 155.289 60.0785 155.813 60.0785 156.501V160.125H58.9865V153.549H60.0785V154.497C60.2945 154.153 60.5825 153.889 60.9425 153.705C61.3105 153.521 61.7145 153.429 62.1545 153.429C62.7065 153.429 63.1945 153.553 63.6185 153.801C64.0425 154.049 64.3585 154.413 64.5665 154.893C64.7505 154.429 65.0545 154.069 65.4785 153.813C65.9025 153.557 66.3745 153.429 66.8945 153.429ZM71.9138 152.481C71.7058 152.481 71.5298 152.409 71.3858 152.265C71.2418 152.121 71.1698 151.945 71.1698 151.737C71.1698 151.529 71.2418 151.353 71.3858 151.209C71.5298 151.065 71.7058 150.993 71.9138 150.993C72.1138 150.993 72.2818 151.065 72.4178 151.209C72.5618 151.353 72.6338 151.529 72.6338 151.737C72.6338 151.945 72.5618 152.121 72.4178 152.265C72.2818 152.409 72.1138 152.481 71.9138 152.481ZM72.4418 153.549V160.125H71.3498V153.549H72.4418ZM75.3949 151.245V160.125H74.3029V151.245H75.3949ZM82.92 153.549L78.96 163.221H77.832L79.128 160.053L76.476 153.549H77.688L79.752 158.877L81.792 153.549H82.92Z" fill="white"/>
<path d="M64.5 64.125C71.1274 64.125 76.5 69.4976 76.5 76.125C76.5 82.7524 71.1274 88.125 64.5 88.125H36.5C29.8726 88.125 24.5 82.7524 24.5 76.125C24.5 69.4976 29.8726 64.125 36.5 64.125H64.5Z" fill="#F97316"/>
<path d="M64.5 64.125C71.1274 64.125 76.5 69.4976 76.5 76.125C76.5 82.7524 71.1274 88.125 64.5 88.125H36.5C29.8726 88.125 24.5 82.7524 24.5 76.125C24.5 69.4976 29.8726 64.125 36.5 64.125H64.5Z" stroke="#E5E7EB"/>
<path d="M38.7635 80.209C38.2115 80.209 37.7155 80.113 37.2755 79.921C36.8435 79.721 36.5035 79.449 36.2555 79.105C36.0075 78.753 35.8795 78.349 35.8715 77.893H37.0355C37.0755 78.285 37.2355 78.617 37.5155 78.889C37.8035 79.153 38.2195 79.285 38.7635 79.285C39.2835 79.285 39.6915 79.157 39.9875 78.901C40.2915 78.637 40.4435 78.301 40.4435 77.893C40.4435 77.573 40.3555 77.313 40.1795 77.113C40.0035 76.913 39.7835 76.761 39.5195 76.657C39.2555 76.553 38.8995 76.441 38.4515 76.321C37.8995 76.177 37.4555 76.033 37.1195 75.889C36.7915 75.745 36.5075 75.521 36.2675 75.217C36.0355 74.905 35.9195 74.489 35.9195 73.969C35.9195 73.513 36.0355 73.109 36.2675 72.757C36.4995 72.405 36.8235 72.133 37.2395 71.941C37.6635 71.749 38.1475 71.653 38.6915 71.653C39.4755 71.653 40.1155 71.849 40.6115 72.241C41.1155 72.633 41.3995 73.153 41.4635 73.801H40.2635C40.2235 73.481 40.0555 73.201 39.7595 72.961C39.4635 72.713 39.0715 72.589 38.5835 72.589C38.1275 72.589 37.7555 72.709 37.4675 72.949C37.1795 73.181 37.0355 73.509 37.0355 73.933C37.0355 74.237 37.1195 74.485 37.2875 74.677C37.4635 74.869 37.6755 75.017 37.9235 75.121C38.1795 75.217 38.5355 75.329 38.9915 75.457C39.5435 75.609 39.9875 75.761 40.3235 75.913C40.6595 76.057 40.9475 76.285 41.1875 76.597C41.4275 76.901 41.5475 77.317 41.5475 77.845C41.5475 78.253 41.4395 78.637 41.2235 78.997C41.0075 79.357 40.6875 79.649 40.2635 79.873C39.8395 80.097 39.3395 80.209 38.7635 80.209ZM44.2465 74.761C44.4625 74.385 44.7825 74.073 45.2065 73.825C45.6385 73.569 46.1385 73.441 46.7065 73.441C47.2905 73.441 47.8185 73.581 48.2905 73.861C48.7705 74.141 49.1465 74.537 49.4185 75.049C49.6905 75.553 49.8265 76.141 49.8265 76.813C49.8265 77.477 49.6905 78.069 49.4185 78.589C49.1465 79.109 48.7705 79.513 48.2905 79.801C47.8185 80.089 47.2905 80.233 46.7065 80.233C46.1465 80.233 45.6505 80.109 45.2185 79.861C44.7945 79.605 44.4705 79.289 44.2465 78.913V83.245H43.1545V73.549H44.2465V74.761ZM48.7105 76.813C48.7105 76.317 48.6105 75.885 48.4105 75.517C48.2105 75.149 47.9385 74.869 47.5945 74.677C47.2585 74.485 46.8865 74.389 46.4785 74.389C46.0785 74.389 45.7065 74.489 45.3625 74.689C45.0265 74.881 44.7545 75.165 44.5465 75.541C44.3465 75.909 44.2465 76.337 44.2465 76.825C44.2465 77.321 44.3465 77.757 44.5465 78.133C44.7545 78.501 45.0265 78.785 45.3625 78.985C45.7065 79.177 46.0785 79.273 46.4785 79.273C46.8865 79.273 47.2585 79.177 47.5945 78.985C47.9385 78.785 48.2105 78.501 48.4105 78.133C48.6105 77.757 48.7105 77.317 48.7105 76.813ZM50.8558 76.813C50.8558 76.141 50.9918 75.553 51.2638 75.049C51.5358 74.537 51.9078 74.141 52.3798 73.861C52.8598 73.581 53.3918 73.441 53.9758 73.441C54.5518 73.441 55.0518 73.565 55.4758 73.813C55.8998 74.061 56.2158 74.373 56.4238 74.749V73.549H57.5278V80.125H56.4238V78.901C56.2078 79.285 55.8838 79.605 55.4518 79.861C55.0278 80.109 54.5318 80.233 53.9638 80.233C53.3798 80.233 52.8518 80.089 52.3798 79.801C51.9078 79.513 51.5358 79.109 51.2638 78.589C50.9918 78.069 50.8558 77.477 50.8558 76.813ZM56.4238 76.825C56.4238 76.329 56.3238 75.897 56.1238 75.529C55.9238 75.161 55.6518 74.881 55.3078 74.689C54.9718 74.489 54.5998 74.389 54.1918 74.389C53.7838 74.389 53.4118 74.485 53.0758 74.677C52.7398 74.869 52.4718 75.149 52.2718 75.517C52.0718 75.885 51.9718 76.317 51.9718 76.813C51.9718 77.317 52.0718 77.757 52.2718 78.133C52.4718 78.501 52.7398 78.785 53.0758 78.985C53.4118 79.177 53.7838 79.273 54.1918 79.273C54.5998 79.273 54.9718 79.177 55.3078 78.985C55.6518 78.785 55.9238 78.501 56.1238 78.133C56.3238 77.757 56.4238 77.321 56.4238 76.825ZM67.2812 73.429C67.7932 73.429 68.2492 73.537 68.6492 73.753C69.0492 73.961 69.3652 74.277 69.5972 74.701C69.8292 75.125 69.9452 75.641 69.9452 76.249V80.125H68.8652V76.405C68.8652 75.749 68.7012 75.249 68.3732 74.905C68.0532 74.553 67.6172 74.377 67.0652 74.377C66.4972 74.377 66.0452 74.561 65.7092 74.929C65.3732 75.289 65.2052 75.813 65.2052 76.501V80.125H64.1252V76.405C64.1252 75.749 63.9612 75.249 63.6332 74.905C63.3132 74.553 62.8772 74.377 62.3252 74.377C61.7572 74.377 61.3052 74.561 60.9692 74.929C60.6332 75.289 60.4652 75.813 60.4652 76.501V80.125H59.3732V73.549H60.4652V74.497C60.6812 74.153 60.9692 73.889 61.3292 73.705C61.6972 73.521 62.1012 73.429 62.5412 73.429C63.0932 73.429 63.5812 73.553 64.0052 73.801C64.4292 74.049 64.7452 74.413 64.9532 74.893C65.1372 74.429 65.4412 74.069 65.8652 73.813C66.2892 73.557 66.7612 73.429 67.2812 73.429Z" fill="white"/>
<defs>
<filter id="filter0_dd_75_827" x="42.5" y="30.125" width="108" height="140" filterUnits="userSpaceOnUse" color-interpolation-filters="sRGB">
<feFlood flood-opacity="0" result="BackgroundImageFix"/>
<feColorMatrix in="SourceAlpha" type="matrix" values="0 0 0 0 0 0 0 0 0 0 0 0 0 0 0 0 0 0 127 0" result="hardAlpha"/>
<feOffset dy="4"/>
<feGaussianBlur stdDeviation="3"/>
<feColorMatrix type="matrix" values="0 0 0 0 0 0 0 0 0 0 0 0 0 0 0 0 0 0 0.1 0"/>
<feBlend mode="normal" in2="BackgroundImageFix" result="effect1_dropShadow_75_827"/>
<feColorMatrix in="SourceAlpha" type="matrix" values="0 0 0 0 0 0 0 0 0 0 0 0 0 0 0 0 0 0 127 0" result="hardAlpha"/>
<feOffset dy="2"/>
<feGaussianBlur stdDeviation="2"/>
<feColorMatrix type="matrix" values="0 0 0 0 0 0 0 0 0 0 0 0 0 0 0 0 0 0 0.06 0"/>
<feBlend mode="normal" in2="effect1_dropShadow_75_827" result="effect2_dropShadow_75_827"/>
<feBlend mode="normal" in="SourceGraphic" in2="effect2_dropShadow_75_827" result="shape"/>
</filter>
<linearGradient id="paint0_linear_75_827" x1="0.5" y1="96.125" x2="192.5" y2="96.125" gradientUnits="userSpaceOnUse">
<stop stop-color="#3B82F6"/>
<stop offset="1" stop-color="#9333EA"/>
</linearGradient>
<clipPath id="clip0_75_827">
<path d="M81.5 65.875H111.5V95.875H81.5V65.875Z" fill="white"/>
</clipPath>
</defs>
</svg>
