<svg width="25" height="25" viewBox="0 0 25 25" fill="none" xmlns="http://www.w3.org/2000/svg">
<path d="M7.81033 0.851242C7.81033 0.64853 7.71551 0.45412 7.54672 0.310781C7.37794 0.167441 7.14902 0.0869141 6.91033 0.0869141C6.67163 0.0869141 6.44271 0.167441 6.27393 0.310781C6.10515 0.45412 6.01033 0.64853 6.01033 0.851242V2.46143C4.28233 2.57862 3.14953 2.86601 2.31673 3.57429C1.48273 4.28155 1.14433 5.2446 1.00513 6.71109H24.8155C24.6763 5.24358 24.3379 4.28155 23.5039 3.57429C22.6711 2.86601 21.5371 2.57862 19.8103 2.46041V0.851242C19.8103 0.64853 19.7155 0.45412 19.5467 0.310781C19.3779 0.167441 19.149 0.0869141 18.9103 0.0869141C18.6716 0.0869141 18.4427 0.167441 18.2739 0.310781C18.1051 0.45412 18.0103 0.64853 18.0103 0.851242V2.39315C17.2123 2.3799 16.3171 2.3799 15.3103 2.3799H10.5103C9.50353 2.3799 8.60833 2.3799 7.81033 2.39315V0.851242Z" fill="#BDBDBD"/>
<path fill-rule="evenodd" clip-rule="evenodd" d="M0.911377 13.8955C0.911377 13.0405 0.911377 12.2802 0.926977 11.6025H24.8958C24.9114 12.2802 24.9114 13.0405 24.9114 13.8955V15.9337C24.9114 19.7768 24.9114 21.6988 23.505 22.8922C22.0986 24.0855 19.8366 24.0866 15.3114 24.0866H10.5114C5.98618 24.0866 3.72298 24.0866 2.31778 22.8922C0.912577 21.6978 0.911377 19.7768 0.911377 15.9337V13.8955Z" fill="#BDBDBD"/>
<path fill-rule="evenodd" clip-rule="evenodd" d="M18.6467 16.6973C18.9511 16.6973 19.2429 16.5764 19.4581 16.3612C19.6733 16.146 19.7942 15.8542 19.7942 15.5498C19.7942 15.2455 19.6733 14.9536 19.4581 14.7384C19.2429 14.5232 18.9511 14.4023 18.6467 14.4023C18.3424 14.4023 18.0506 14.5232 17.8354 14.7384C17.6202 14.9536 17.4993 15.2455 17.4993 15.5498C17.4993 15.8542 17.6202 16.146 17.8354 16.3612C18.0506 16.5764 18.3424 16.6973 18.6467 16.6973Z" fill="#1B2638"/>
<path fill-rule="evenodd" clip-rule="evenodd" d="M18.6467 21.2871C18.9511 21.2871 19.2429 21.1663 19.4581 20.9511C19.6733 20.7359 19.7942 20.444 19.7942 20.1397C19.7942 19.8353 19.6733 19.5435 19.4581 19.3283C19.2429 19.1131 18.9511 18.9922 18.6467 18.9922C18.3424 18.9922 18.0506 19.1131 17.8354 19.3283C17.6202 19.5435 17.4993 19.8353 17.4993 20.1397C17.4993 20.444 17.6202 20.7359 17.8354 20.9511C18.0506 21.1663 18.3424 21.2871 18.6467 21.2871Z" fill="#1B2638"/>
<path fill-rule="evenodd" clip-rule="evenodd" d="M14.0599 15.5498C14.0599 15.8542 13.939 16.146 13.7238 16.3612C13.5086 16.5764 13.2167 16.6973 12.9124 16.6973C12.608 16.6973 12.3162 16.5764 12.101 16.3612C11.8858 16.146 11.7649 15.8542 11.7649 15.5498C11.7649 15.2455 11.8858 14.9536 12.101 14.7384C12.3162 14.5232 12.608 14.4023 12.9124 14.4023C13.2167 14.4023 13.5086 14.5232 13.7238 14.7384C13.939 14.9536 14.0599 15.2455 14.0599 15.5498Z" fill="#1B2638"/>
<path fill-rule="evenodd" clip-rule="evenodd" d="M14.0599 20.1397C14.0599 20.444 13.939 20.7359 13.7238 20.9511C13.5086 21.1663 13.2167 21.2871 12.9124 21.2871C12.608 21.2871 12.3162 21.1663 12.101 20.9511C11.8858 20.7359 11.7649 20.444 11.7649 20.1397C11.7649 19.8353 11.8858 19.5435 12.101 19.3283C12.3162 19.1131 12.608 18.9922 12.9124 18.9922C13.2167 18.9922 13.5086 19.1131 13.7238 19.3283C13.939 19.5435 14.0599 19.8353 14.0599 20.1397Z" fill="#1B2638"/>
<path fill-rule="evenodd" clip-rule="evenodd" d="M7.17409 16.6973C7.47842 16.6973 7.77029 16.5764 7.98548 16.3612C8.20068 16.146 8.32157 15.8542 8.32157 15.5498C8.32157 15.2455 8.20068 14.9536 7.98548 14.7384C7.77029 14.5232 7.47842 14.4023 7.17409 14.4023C6.86976 14.4023 6.57789 14.5232 6.3627 14.7384C6.14751 14.9536 6.02661 15.2455 6.02661 15.5498C6.02661 15.8542 6.14751 16.146 6.3627 16.3612C6.57789 16.5764 6.86976 16.6973 7.17409 16.6973Z" fill="#1B2638"/>
<path fill-rule="evenodd" clip-rule="evenodd" d="M7.17409 21.2871C7.47842 21.2871 7.77029 21.1663 7.98548 20.9511C8.20068 20.7359 8.32157 20.444 8.32157 20.1397C8.32157 19.8353 8.20068 19.5435 7.98548 19.3283C7.77029 19.1131 7.47842 18.9922 7.17409 18.9922C6.86976 18.9922 6.57789 19.1131 6.3627 19.3283C6.14751 19.5435 6.02661 19.8353 6.02661 20.1397C6.02661 20.444 6.14751 20.7359 6.3627 20.9511C6.57789 21.1663 6.86976 21.2871 7.17409 21.2871Z" fill="#1B2638"/>
</svg>
