<svg width="24" height="19" viewBox="0 0 24 19" fill="none" xmlns="http://www.w3.org/2000/svg">
<g clip-path="url(#clip0_396_363)">
<g clip-path="url(#clip1_396_363)">
<path d="M8.85899 1.11466C8.58828 0.460754 7.87461 0.112707 7.19258 0.299035L4.09883 1.14278C3.48711 1.31153 3.06172 1.867 3.06172 2.49982C3.06172 6.2756 4.39063 9.742 6.60547 12.4526L1.13516 16.7416C0.769534 17.0299 0.702737 17.5608 0.991018 17.9264C1.2793 18.292 1.81016 18.3588 2.17578 18.0705L22.9883 1.75802C23.3539 1.46974 23.4207 0.938879 23.1324 0.573254C22.8441 0.207629 22.3133 0.140832 21.9477 0.429113L9.70625 10.0233C9.08047 9.26739 8.54961 8.43419 8.12422 7.53771L9.85742 6.12091C10.3391 5.72716 10.5043 5.06622 10.2652 4.49318L8.85899 1.11818V1.11466ZM12.2621 12.3295L9.05235 14.8608C11.7348 16.9842 15.1238 18.2498 18.8117 18.2498C19.4445 18.2498 20 17.8244 20.1688 17.2127L21.0125 14.119C21.1988 13.4369 20.8508 12.7233 20.1969 12.4526L16.8219 11.0463C16.2488 10.8072 15.5844 10.9725 15.1941 11.4541L13.7738 13.1873C13.2465 12.9377 12.7438 12.6529 12.2621 12.333V12.3295Z" fill="#EF4444"/>
</g>
</g>
<defs>
<clipPath id="clip0_396_363">
<rect width="22.5" height="18" fill="white" transform="translate(0.811523 0.25)"/>
</clipPath>
<clipPath id="clip1_396_363">
<path d="M0.811523 0.25H23.3115V18.25H0.811523V0.25Z" fill="white"/>
</clipPath>
</defs>
</svg>
