<svg width="27" height="18" viewBox="0 0 27 18" fill="none" xmlns="http://www.w3.org/2000/svg">
<path d="M26.5665 2.95183C26.5665 1.32371 25.2428 0 23.6147 0H9.46892C8.68484 0 7.93305 0.30902 7.37958 0.862488L0.43355 7.81313C0.156816 8.08986 0 8.46346 0 8.8555C0 9.24754 0.156816 9.62113 0.43355 9.89786L7.37958 16.8485C7.93305 17.402 8.68484 17.711 9.46892 17.711H23.6147C25.2428 17.711 26.5665 16.3873 26.5665 14.7592V2.95183ZM12.4992 5.11958C12.9327 4.68603 13.6338 4.68603 14.0627 5.11958L16.2305 7.28733L18.3982 5.11958C18.8318 4.68603 19.5328 4.68603 19.9618 5.11958C20.3907 5.55313 20.3953 6.25419 19.9618 6.68313L17.794 8.85088L19.9618 11.0186C20.3953 11.4522 20.3953 12.1532 19.9618 12.5822C19.5282 13.0111 18.8272 13.0157 18.3982 12.5822L16.2305 10.4144L14.0627 12.5822C13.6292 13.0157 12.9281 13.0157 12.4992 12.5822C12.0702 12.1486 12.0656 11.4476 12.4992 11.0186L14.6669 8.85088L12.4992 6.68313C12.0656 6.24958 12.0656 5.54852 12.4992 5.11958Z" fill="white"/>
</svg>
