<svg width="25" height="25" viewBox="0 0 25 25" fill="none" xmlns="http://www.w3.org/2000/svg">
<path d="M21.8293 20.0872C21.8293 20.3524 21.724 20.6068 21.5365 20.7943C21.3489 20.9819 21.0946 21.0872 20.8293 21.0872H4.82935C4.56413 21.0872 4.30978 20.9819 4.12224 20.7943C3.9347 20.6068 3.82935 20.3524 3.82935 20.0872V9.57721C3.82924 9.42482 3.86396 9.27443 3.93086 9.13751C3.99776 9.00059 4.09507 8.88077 4.21535 8.78721L12.2153 2.56421C12.3909 2.42766 12.6069 2.35352 12.8293 2.35352C13.0517 2.35352 13.2678 2.42766 13.4433 2.56421L21.4433 8.78721C21.5636 8.88077 21.6609 9.00059 21.7278 9.13751C21.7947 9.27443 21.8295 9.42482 21.8293 9.57721V20.0872ZM19.8293 19.0872V10.0652L12.8293 4.62121L5.82935 10.0652V19.0872H19.8293ZM7.82935 15.0872H17.8293V17.0872H7.82935V15.0872Z" fill="#BDBDBD"/>
</svg>
