<svg width="24" height="25" viewBox="0 0 24 25" fill="none" xmlns="http://www.w3.org/2000/svg">
<path d="M1.50244 0.273438C2.33213 0.273438 3.00244 1.03951 3.00244 1.98772V19.9877C3.00244 20.4592 3.33994 20.8449 3.75244 20.8449H22.5024C23.3321 20.8449 24.0024 21.6109 24.0024 22.5592C24.0024 23.5074 23.3321 24.2734 22.5024 24.2734H3.75244C1.68057 24.2734 0.00244141 22.3556 0.00244141 19.9877V1.98772C0.00244141 1.03951 0.672754 0.273438 1.50244 0.273438ZM6.00244 5.41629C6.00244 4.46808 6.67275 3.70201 7.50244 3.70201H16.5024C17.3321 3.70201 18.0024 4.46808 18.0024 5.41629C18.0024 6.36451 17.3321 7.13058 16.5024 7.13058H7.50244C6.67275 7.13058 6.00244 6.36451 6.00244 5.41629ZM7.50244 8.84487H13.5024C14.3321 8.84487 15.0024 9.61094 15.0024 10.5592C15.0024 11.5074 14.3321 12.2734 13.5024 12.2734H7.50244C6.67275 12.2734 6.00244 11.5074 6.00244 10.5592C6.00244 9.61094 6.67275 8.84487 7.50244 8.84487ZM7.50244 13.9877H19.5024C20.3321 13.9877 21.0024 14.7538 21.0024 15.702C21.0024 16.6502 20.3321 17.4163 19.5024 17.4163H7.50244C6.67275 17.4163 6.00244 16.6502 6.00244 15.702C6.00244 14.7538 6.67275 13.9877 7.50244 13.9877Z" fill="#BDBDBD"/>
</svg>
