<svg width="17" height="15" viewBox="0 0 17 15" fill="none" xmlns="http://www.w3.org/2000/svg">
<g clip-path="url(#clip0_75_859)">
<path d="M7.85742 1.01699C8.26484 0.82832 8.73516 0.82832 9.14258 1.01699L15.1199 3.77871C15.3523 3.88535 15.5 4.11777 15.5 4.3748C15.5 4.63184 15.3523 4.86426 15.1199 4.9709L9.14258 7.73262C8.73516 7.92129 8.26484 7.92129 7.85742 7.73262L1.88008 4.9709C1.64766 4.86152 1.5 4.6291 1.5 4.3748C1.5 4.12051 1.64766 3.88535 1.88008 3.77871L7.85742 1.01699ZM13.6652 6.60606L15.1199 7.27871C15.3523 7.38535 15.5 7.61777 15.5 7.8748C15.5 8.13184 15.3523 8.36426 15.1199 8.4709L9.14258 11.2326C8.73516 11.4213 8.26484 11.4213 7.85742 11.2326L1.88008 8.4709C1.64766 8.36152 1.5 8.1291 1.5 7.8748C1.5 7.62051 1.64766 7.38535 1.88008 7.27871L3.33477 6.60606L7.49102 8.52559C8.13086 8.8209 8.86914 8.8209 9.50898 8.52559L13.6652 6.60606ZM9.50898 12.0256L13.6652 10.1061L15.1199 10.7787C15.3523 10.8854 15.5 11.1178 15.5 11.3748C15.5 11.6318 15.3523 11.8643 15.1199 11.9709L9.14258 14.7326C8.73516 14.9213 8.26484 14.9213 7.85742 14.7326L1.88008 11.9709C1.64766 11.8615 1.5 11.6291 1.5 11.3748C1.5 11.1205 1.64766 10.8854 1.88008 10.7787L3.33477 10.1061L7.49102 12.0256C8.13086 12.3209 8.86914 12.3209 9.50898 12.0256Z" fill="#16A34A"/>
</g>
<defs>
<clipPath id="clip0_75_859">
<path d="M0.625 0.875H16.375V14.875H0.625V0.875Z" fill="white"/>
</clipPath>
</defs>
</svg>
