<svg width="16" height="19" viewBox="0 0 16 19" fill="none" xmlns="http://www.w3.org/2000/svg">
<g clip-path="url(#clip0_75_930)">
<path d="M12.4262 1.81951C12.6336 1.33787 12.4789 0.775367 12.0535 0.465992C11.6281 0.156617 11.048 0.184742 10.6508 0.529273L1.65077 8.40427C1.29921 8.71365 1.17265 9.20935 1.33788 9.64529C1.50312 10.0812 1.92499 10.3765 2.39257 10.3765H6.31249L3.60898 16.6836C3.40155 17.1652 3.55624 17.7277 3.98163 18.0371C4.40702 18.3465 4.9871 18.3183 5.38437 17.9738L14.3844 10.0988C14.7359 9.78943 14.8625 9.29373 14.6973 8.85779C14.532 8.42185 14.1137 8.13005 13.6426 8.13005H9.72265L12.4262 1.81951Z" fill="#2563EB"/>
</g>
<defs>
<clipPath id="clip0_75_930">
<path d="M0.142578 0.251465H15.8926V18.2515H0.142578V0.251465Z" fill="white"/>
</clipPath>
</defs>
</svg>
