<svg width="22" height="19" viewBox="0 0 22 19" fill="none" xmlns="http://www.w3.org/2000/svg">
<g clip-path="url(#clip0_75_925)">
<path d="M9.14375 1.75264L7.81836 2.24834C7.71289 2.28701 7.64258 2.38896 7.64258 2.50146C7.64258 2.61396 7.71289 2.71592 7.81836 2.75459L9.14375 3.25029L9.63945 4.57568C9.67813 4.68115 9.78008 4.75146 9.89258 4.75146C10.0051 4.75146 10.107 4.68115 10.1457 4.57568L10.6414 3.25029L11.9668 2.75459C12.0723 2.71592 12.1426 2.61396 12.1426 2.50146C12.1426 2.38896 12.0723 2.28701 11.9668 2.24834L10.6414 1.75264L10.1457 0.427246C10.107 0.321777 10.0051 0.251465 9.89258 0.251465C9.78008 0.251465 9.67813 0.321777 9.63945 0.427246L9.14375 1.75264ZM2.51328 14.1522C1.85586 14.8097 1.85586 15.8784 2.51328 16.5394L3.72969 17.7558C4.38711 18.4132 5.45586 18.4132 6.1168 17.7558L19.5219 4.34717C20.1793 3.68975 20.1793 2.621 19.5219 1.96006L18.3055 0.747168C17.648 0.0897461 16.5793 0.0897461 15.9184 0.747168L2.51328 14.1522ZM17.9293 3.15537L14.2379 6.84678L13.4187 6.02764L17.1102 2.33623L17.9293 3.15537ZM1.15625 4.37178C0.998047 4.43154 0.892578 4.58272 0.892578 4.75146C0.892578 4.92021 0.998047 5.07139 1.15625 5.13115L3.14258 5.87646L3.88789 7.86279C3.94766 8.021 4.09883 8.12646 4.26758 8.12646C4.43633 8.12646 4.5875 8.021 4.64727 7.86279L5.39258 5.87646L7.37891 5.13115C7.53711 5.07139 7.64258 4.92021 7.64258 4.75146C7.64258 4.58272 7.53711 4.43154 7.37891 4.37178L5.39258 3.62646L4.64727 1.64014C4.5875 1.48193 4.43633 1.37646 4.26758 1.37646C4.09883 1.37646 3.94766 1.48193 3.88789 1.64014L3.14258 3.62646L1.15625 4.37178ZM13.5312 13.3718C13.373 13.4315 13.2676 13.5827 13.2676 13.7515C13.2676 13.9202 13.373 14.0714 13.5312 14.1312L15.5176 14.8765L16.2629 16.8628C16.3227 17.021 16.4738 17.1265 16.6426 17.1265C16.8113 17.1265 16.9625 17.021 17.0223 16.8628L17.7676 14.8765L19.7539 14.1312C19.9121 14.0714 20.0176 13.9202 20.0176 13.7515C20.0176 13.5827 19.9121 13.4315 19.7539 13.3718L17.7676 12.6265L17.0223 10.6401C16.9625 10.4819 16.8113 10.3765 16.6426 10.3765C16.4738 10.3765 16.3227 10.4819 16.2629 10.6401L15.5176 12.6265L13.5312 13.3718Z" fill="#9333EA"/>
</g>
<defs>
<clipPath id="clip0_75_925">
<path d="M0.892578 0.251465H21.1426V18.2515H0.892578V0.251465Z" fill="white"/>
</clipPath>
</defs>
</svg>
