<svg width="15" height="15" viewBox="0 0 15 15" fill="none" xmlns="http://www.w3.org/2000/svg">
<g clip-path="url(#clip0_75_868)">
<path d="M11.875 6.5625C11.875 7.81758 11.4676 8.97695 10.7812 9.91758L14.243 13.382C14.5848 13.7238 14.5848 14.2789 14.243 14.6207C13.9012 14.9625 13.3461 14.9625 13.0043 14.6207L9.54258 11.1562C8.60195 11.8453 7.44258 12.25 6.1875 12.25C3.0457 12.25 0.5 9.7043 0.5 6.5625C0.5 3.4207 3.0457 0.875 6.1875 0.875C9.3293 0.875 11.875 3.4207 11.875 6.5625ZM6.1875 10.5C6.70458 10.5 7.2166 10.3982 7.69432 10.2003C8.17204 10.0024 8.6061 9.71236 8.97173 9.34673C9.33736 8.9811 9.6274 8.54704 9.82528 8.06932C10.0232 7.5916 10.125 7.07958 10.125 6.5625C10.125 6.04542 10.0232 5.5334 9.82528 5.05568C9.6274 4.57796 9.33736 4.1439 8.97173 3.77827C8.6061 3.41264 8.17204 3.1226 7.69432 2.92472C7.2166 2.72685 6.70458 2.625 6.1875 2.625C5.67042 2.625 5.1584 2.72685 4.68068 2.92472C4.20296 3.1226 3.7689 3.41264 3.40327 3.77827C3.03764 4.1439 2.7476 4.57796 2.54972 5.05568C2.35185 5.5334 2.25 6.04542 2.25 6.5625C2.25 7.07958 2.35185 7.5916 2.54972 8.06932C2.7476 8.54704 3.03764 8.9811 3.40327 9.34673C3.7689 9.71236 4.20296 10.0024 4.68068 10.2003C5.1584 10.3982 5.67042 10.5 6.1875 10.5Z" fill="#9333EA"/>
</g>
<defs>
<clipPath id="clip0_75_868">
<path d="M0.5 0.875H14.5V14.875H0.5V0.875Z" fill="white"/>
</clipPath>
</defs>
</svg>
