<svg width="15" height="15" viewBox="0 0 15 15" fill="none" xmlns="http://www.w3.org/2000/svg">
<g clip-path="url(#clip0_75_850)">
<path d="M9.93359 1.94414L13.4281 5.47969C14.8609 6.92891 14.8609 9.25859 13.4281 10.7078L10.3656 13.8059C10.1113 14.0629 9.6957 14.0656 9.43867 13.8113C9.18164 13.557 9.17891 13.1414 9.4332 12.8844L12.493 9.78633C13.4199 8.84844 13.4199 7.3418 12.493 6.40391L9.00117 2.86836C8.74687 2.61133 8.74961 2.1957 9.00664 1.94141C9.26367 1.68711 9.6793 1.68984 9.93359 1.94688V1.94414ZM0.5 7.15039V3.0625C0.5 2.33789 1.08789 1.75 1.8125 1.75H5.90039C6.36523 1.75 6.81094 1.9332 7.13906 2.26133L11.7328 6.85508C12.4164 7.53867 12.4164 8.64609 11.7328 9.32969L8.08242 12.9801C7.39883 13.6637 6.29141 13.6637 5.60781 12.9801L1.01406 8.38633C0.683203 8.0582 0.5 7.61523 0.5 7.15039ZM4.4375 4.8125C4.4375 4.58044 4.34531 4.35788 4.18122 4.19378C4.01712 4.02969 3.79456 3.9375 3.5625 3.9375C3.33044 3.9375 3.10788 4.02969 2.94378 4.19378C2.77969 4.35788 2.6875 4.58044 2.6875 4.8125C2.6875 5.04456 2.77969 5.26712 2.94378 5.43122C3.10788 5.59531 3.33044 5.6875 3.5625 5.6875C3.79456 5.6875 4.01712 5.59531 4.18122 5.43122C4.34531 5.26712 4.4375 5.04456 4.4375 4.8125Z" fill="#2563EB"/>
</g>
<defs>
<clipPath id="clip0_75_850">
<path d="M0.5 0.875H14.5V14.875H0.5V0.875Z" fill="white"/>
</clipPath>
</defs>
</svg>
