<svg width="17" height="21" viewBox="0 0 17 21" fill="none" xmlns="http://www.w3.org/2000/svg">
<path d="M14.7576 1.26199H11.4285L11.2932 0.692961C11.2467 0.494689 11.0585 0.353516 10.8414 0.353516H7.09141C6.87436 0.353516 6.68685 0.494689 6.63965 0.692961L6.50497 1.26199H3.17519C1.95715 1.26199 0.966797 2.18928 0.966797 3.32933V18.2862C0.966797 19.4262 1.95715 20.3535 3.17519 20.3535H14.7577C15.9757 20.3535 16.9668 19.4262 16.9668 18.2862V3.32933C16.9668 2.18928 15.9757 1.26199 14.7576 1.26199ZM15.5232 18.2861C15.5232 18.681 15.1799 19.0023 14.7576 19.0023H3.17514C2.75361 19.0023 2.41032 18.681 2.41032 18.2861V3.32933C2.41032 2.93445 2.75361 2.61318 3.17514 2.61318H6.18421L6.10741 2.93644C6.07636 3.06474 6.11022 3.19933 6.19764 3.30163C6.2857 3.40423 6.41896 3.46392 6.55917 3.46392H11.3742C11.5145 3.46392 11.6477 3.40423 11.7351 3.30163C11.8232 3.19904 11.8571 3.06479 11.8261 2.93644L11.7493 2.61318H14.7576C15.1799 2.61318 15.5232 2.93449 15.5232 3.32933V18.2861Z" fill="#BDBDBD"/>
<path d="M5.4032 7.83731H7.12088L6.71264 7.55854C6.13652 7.16539 5.98854 6.37925 6.382 5.80321C6.77491 5.22777 7.56129 5.07883 8.13733 5.47262L8.20461 5.51857V5.03658C8.20461 4.72417 7.9511 4.4707 7.63897 4.4707H5.4032C5.09115 4.4707 4.83765 4.72421 4.83765 5.03658V7.27143C4.83765 7.58388 5.09115 7.83731 5.4032 7.83731Z" fill="#BDBDBD"/>
<path d="M10.6623 4.73436L8.68244 6.60872L7.78073 5.99352C7.49394 5.79645 7.1004 5.87108 6.90305 6.15882C6.70629 6.4468 6.78033 6.83971 7.06898 7.03646L8.39073 7.93909C8.49868 8.01312 8.62263 8.04918 8.74662 8.04918C8.9039 8.04918 9.0599 7.99064 9.18084 7.87618L11.5307 5.65153C11.7842 5.41192 11.7946 5.01194 11.5553 4.75875C11.3148 4.50556 10.9157 4.49476 10.6623 4.73436Z" fill="#BDBDBD"/>
<path d="M5.4032 12.1755H7.12151L6.71264 11.8964C6.13652 11.5032 5.98854 10.7171 6.382 10.1411C6.77491 9.5653 7.56129 9.41637 8.13733 9.81047L8.20461 9.85646V9.37447C8.20461 9.0621 7.9511 8.80859 7.63897 8.80859H5.4032C5.09115 8.80859 4.83765 9.0621 4.83765 9.37447V11.6096C4.83765 11.922 5.09115 12.1755 5.4032 12.1755Z" fill="#BDBDBD"/>
<path d="M10.6623 9.07314L8.68244 10.9472L7.78073 10.332C7.49394 10.1346 7.1004 10.2089 6.90305 10.4973C6.70629 10.7853 6.78033 11.1782 7.06898 11.375L8.39073 12.2776C8.49868 12.3516 8.62263 12.3877 8.74662 12.3877C8.9039 12.3877 9.0599 12.3291 9.18084 12.2147L11.5307 9.9903C11.7842 9.75069 11.7946 9.35103 11.5553 9.09752C11.3148 8.8443 10.9157 8.83381 10.6623 9.07314Z" fill="#BDBDBD"/>
<path d="M7.63897 13.1475H5.4032C5.09115 13.1475 4.83765 13.401 4.83765 13.7133V15.9482C4.83765 16.2606 5.09115 16.5141 5.4032 16.5141H7.63897C7.9511 16.5141 8.20461 16.2606 8.20461 15.9482V13.7133C8.20461 13.401 7.9511 13.1475 7.63897 13.1475Z" fill="#BDBDBD"/>
</svg>
